<svg version="1.1" id="Layer_1" xmlns="http://www.w3.org/2000/svg" xmlns:xlink="http://www.w3.org/1999/xlink" x="50px" y="50px"
	 width="50px" viewBox="0 0 944 816" enable-background="new 0 0 944 816" xml:space="preserve">
<path fill="#000000" opacity="1.000000" stroke="none" 
	d="
M516.864319,535.042358 
	C500.809875,541.244385 484.556396,544.667603 467.730896,544.124878 
	C426.119507,542.782532 392.742096,525.397034 368.395477,491.508789 
	C360.511200,480.534576 354.893341,468.190643 351.493469,455.095703 
	C346.005524,433.958435 345.960449,412.660461 351.554291,391.500763 
	C359.032410,363.213531 374.450439,340.127777 399.123199,324.314819 
	C417.383789,312.611542 437.580231,305.524475 459.360626,302.189270 
	C474.680481,299.843353 489.670654,299.969330 504.348236,303.444702 
	C532.263245,310.054474 554.225525,325.778351 570.599060,349.582336 
	C589.771179,377.454895 594.926208,408.371552 589.916016,440.917114 
	C584.856567,473.782471 568.816895,500.884125 541.863281,520.924805 
	C534.269958,526.570618 525.978149,531.200684 516.864319,535.042358 
M457.763458,322.241974 
	C450.774353,326.145172 446.928864,332.397705 444.795105,339.846466 
	C443.628204,343.920227 445.676025,348.906250 449.114044,350.028687 
	C452.822021,351.239258 454.358704,348.029816 456.224213,345.828308 
	C458.583923,343.043579 460.485046,339.798126 463.133118,337.343964 
	C469.982483,330.996063 481.488892,333.869354 484.144379,342.355591 
	C486.873810,351.078125 482.845886,360.427307 472.395630,365.691589 
	C466.201080,368.812103 464.137085,372.685638 465.015503,379.010742 
	C465.197205,380.319000 464.937256,381.684814 465.075806,383.003601 
	C465.499176,387.033997 464.328278,389.996368 460.488770,392.044891 
	C456.550446,394.146179 453.004822,396.969269 449.147614,399.239044 
	C427.788879,411.807129 406.386139,424.300415 385.003326,436.827637 
	C383.273743,437.840942 381.363525,438.831177 380.794312,440.899902 
	C378.904236,447.769012 378.581635,454.844727 377.479279,462.789154 
	C382.151733,461.187347 385.932861,460.131714 389.522858,458.621704 
	C414.340942,448.182892 439.344635,438.166321 463.671478,426.599091 
	C467.403137,424.824677 470.859039,424.447113 474.700439,425.882996 
	C499.895508,435.300812 525.107605,444.673218 550.324036,454.033722 
	C554.156006,455.456177 557.927063,457.204498 562.910889,457.174591 
	C561.870422,448.511993 560.897217,440.167603 559.848022,431.832764 
	C559.560181,429.546234 557.693481,428.627533 555.859436,427.733551 
	C550.924011,425.327820 545.967041,422.962708 541.080200,420.461273 
	C526.432983,412.963898 511.813873,405.411652 497.186554,397.875549 
	C491.873688,395.138306 486.545349,392.429626 481.269653,389.622284 
	C478.679413,388.243988 476.814362,386.447601 476.690826,383.064392 
	C476.559570,379.469513 478.716919,378.111298 481.358551,376.800110 
	C483.734436,375.620789 486.096222,374.468872 488.032928,372.501038 
	C498.963867,361.394440 501.090118,348.640900 496.392090,333.967773 
	C490.832916,316.605072 473.314026,314.077148 457.763458,322.241974 
M538.769287,489.319794 
	C541.817627,487.455841 544.219910,484.962860 545.957397,481.845825 
	C548.558289,477.179932 548.435486,467.780975 545.757996,464.641846 
	C542.065552,460.312714 535.183716,458.801422 529.710815,461.096191 
	C528.586670,461.567596 527.522461,462.026581 528.039001,464.010773 
	C530.052979,465.299896 532.674927,464.425842 535.020325,464.960327 
	C537.183350,465.453247 539.330627,466.206635 539.930237,468.644501 
	C540.526855,471.069641 539.201660,473.053345 537.292297,474.137024 
	C532.986572,476.580658 528.799316,478.183929 523.244019,477.078705 
	C515.014099,475.441315 509.390717,470.109619 503.057098,465.671783 
	C494.844574,459.917450 486.008453,455.964874 475.963837,459.027679 
	C471.556915,460.371429 468.006714,461.417053 464.032257,458.446045 
	C462.451935,457.264709 460.316772,457.553772 458.252502,457.641968 
	C448.412598,458.062378 440.593536,462.824646 433.057434,468.539124 
	C427.330811,472.881470 421.099945,476.340393 413.852020,477.566132 
	C409.239655,478.346161 405.295990,476.832947 401.834564,473.991425 
	C400.252197,472.692505 399.259705,470.835938 399.946259,468.647125 
	C400.616364,466.510803 402.581696,466.373901 404.392517,466.050323 
	C406.728516,465.632904 409.465210,466.479645 411.356415,463.821136 
	C411.044220,463.276459 410.868195,462.530334 410.402557,462.222870 
	C403.518646,457.677887 391.897308,463.444275 391.350098,471.640686 
	C390.881165,478.664703 396.580353,488.312775 403.001923,491.170013 
	C416.368286,497.117310 430.076721,497.010223 443.982300,493.400360 
	C451.629395,491.415192 458.589478,487.960693 465.327667,483.917023 
	C467.337524,482.710846 469.400421,481.082123 472.148926,483.161133 
	C478.707947,488.122498 486.072601,491.561218 494.075745,493.495117 
	C509.175232,497.143738 524.027527,497.537262 538.769287,489.319794 
z"/>
</svg>